{"title":"[Big Tits at school] Come from behind Shyla Stylez (mp4 480p)","uid":11346702,"size":343260124,"categoryP":"porn","categoryS":"movie_clips","magnet":"?xt=urn:btih:d9b129ac6dbd994a0d0c4dbd9d8497fd22a34a82&amp;dn=%5BBig+Tits+at+school%5D+Come+from+behind+Shyla+Stylez+%28mp4+480p%29&amp;tr=udp%3A%2F%2Ftracker.openbittorrent.com%3A80&amp;tr=udp%3A%2F%2Fopen.demonii.com%3A1337&amp;tr=udp%3A%2F%2Ftracker.coppersurfer.tk%3A6969&amp;tr=udp%3A%2F%2Fexodus.desync.com%3A6969","seeders":1,"leechers":0,"uploader":"supertongo","files":1,"time":1414866362,"description":"           [Big Tits at school] Come from behind Shyla Stylez \n\n\n\n:::Media info:::\n\nGeneral\n\nFormat                         : MPEG-4\nFormat profile                 : Base Media\nCodec ID                       : isom\nFile size                      : 327 MiB\nDuration                       : 37mn 0s\nOverall bit rate mode          : Variable\nOverall bit rate               : 1 237 Kbps\n\nVideo\nID                             : 1\nFormat                         : AVC\nFormat/Info                    : Advanced Video Codec\nFormat profile                 : &lt;a class=&quot;__cf_email__&quot; href=&quot;/cdn-cgi/l/email-protection&quot; data-cfemail=&quot;81c3e0f2e4ede8efe4c1cdb0afb2&quot;&gt;[email&amp;#160;protected]&lt;/a&gt;&lt;script cf-hash='f9e31' type=&quot;text/javascript&quot;&gt;\n/* &lt;![CDATA[ */!function(){try{var t=&quot;currentScript&quot;in document?document.currentScript:function(){for(var t=document.getElementsByTagName(&quot;script&quot;),e=t.length;e--;)if(t[e].getAttribute(&quot;cf-hash&quot;))return t[e]}();if(t&amp;&amp;t.previousSibling){var e,r,n,i,c=t.previousSibling,a=c.getAttribute(&quot;data-cfemail&quot;);if(a){for(e=&quot;&quot;,r=parseInt(a.substr(0,2),16),n=2;a.length-n;n+=2)i=parseInt(a.substr(n,2),16)^r,e+=String.fromCharCode(i);e=document.createTextNode(e),c.parentNode.replaceChild(e,c)}}}catch(u){}}();/* ]]&gt; */&lt;/script&gt;\nFormat settings, CABAC         : No\nFormat settings, ReFrames      : 1 frame\nCodec ID                       : avc1\nCodec ID/Info                  : Advanced Video Coding\nDuration                       : 37mn 0s\nBit rate                       : 1 100 Kbps\nWidth                          : 640 pixels\nHeight                         : 480 pixels\nDisplay aspect ratio           : 4:3\nFrame rate mode                : Constant\nFrame rate                     : 29.970 fps\nColor space                    : YUV\nChroma subsampling             : 4:2:0\nBit depth                      : 8 bits\nScan type                      : Progressive\nBits/(Pixel*Frame)             : 0.119\nStream size                    : 291 MiB (89%)\n\nAudio\nID                             : 2\nFormat                         : AAC\nFormat/Info                    : Advanced Audio Codec\nFormat profile                 : LC\nCodec ID                       : 40\nDuration                       : 37mn 0s\nBit rate mode                  : Variable\nBit rate                       : 132 Kbps\nChannel(s)                     : 2 channels\nChannel positions              : Front: L R\nSampling rate                  : 48.0 KHz\nCompression mode               : Lossy\nStream size                    : 34.9 MiB (11%)\n\n &lt;a href=&quot;\nhttp://bayimg.com/FACpFaAGJ&quot; rel=&quot;nofollow&quot; target=&quot;_NEW&quot;&gt;\nhttp://bayimg.com/FACpFaAGJ&lt;/a&gt;","torrent":{"xt":"urn:btih:d9b129ac6dbd994a0d0c4dbd9d8497fd22a34a82","amp;dn":"%5BBig+Tits+at+school%5D+Come+from+behind+Shyla+Stylez+%28mp4+480p%29","amp;tr":["udp%3A%2F%2Ftracker.openbittorrent.com%3A80","udp%3A%2F%2Fopen.demonii.com%3A1337","udp%3A%2F%2Ftracker.coppersurfer.tk%3A6969","udp%3A%2F%2Fexodus.desync.com%3A6969"],"infoHash":"d9b129ac6dbd994a0d0c4dbd9d8497fd22a34a82","infoHashBuffer":{"type":"Buffer","data":[217,177,41,172,109,189,153,74,13,12,77,189,157,132,151,253,34,163,74,130]},"announce":[],"urlList":[]}}